[img]http://img706.imageshack.us/img706/2352/wreckitralph.jpg[/img]

[b][size=200][color=black]PLOT[/color][/size][/b]

[code]A video game villain wants to be a hero and sets out to 
fulfill his dream, but his quest brings havoc to the whole arcade 
where he lives.[/code]

[b][size=200][color=black]IMDB[/color][/size][/b]

[code]http://www.imdb.com/title/tt1772341/[/code]

[b][size=200][color=black]MOVIE INFO[/color][/size][/b]

[code]Wreck-It Ralph [2012] BRRip x264 AAC-V3nom

Format                                   : MPEG-4
Format profile                           : Base Media / Version 2
Codec ID                                 : mp42
File size                                : 350 MiB
Duration                                 : 1h 41mn
Overall bit rate mode                    : Variable
Overall bit rate                         : 483 Kbps
Encoded date                             : UTC 2013-02-17 15:57:15
Tagged date                              : UTC 2013-02-17 16:21:40

Video
ID                                       : 1
Format                                   : AVC
Format/Info                              : Advanced Video Codec
Format profile                           : Main@L2.1
Format settings, CABAC                   : Yes
Format settings, ReFrames                : 4 frames
Codec ID                                 : avc1
Codec ID/Info                            : Advanced Video Coding
Duration                                 : 1h 41mn
Bit rate mode                            : Variable
Bit rate                                 : 383 Kbps
Width                                    : 640 pixels
Height                                   : 256 pixels
Display aspect ratio                     : 2.35:1
Original display aspect ratio            : 2.35:1
Frame rate mode                          : Variable
Frame rate                               : 23.976 fps
Minimum frame rate                       : 23.974 fps
Maximum frame rate                       : 23.981 fps
Color space                              : YUV
Chroma subsampling                       : 4:2:0
Bit depth                                : 8 bits
Scan type                                : Progressive
Bits/(Pixel*Frame)                       : 0.097
Stream size                              : 277 MiB (79%)
Writing library                          : x264 core 112

Audio
ID                                       : 2
Format                                   : AAC
Format/Info                              : Advanced Audio Codec
Format profile                           : LC
Codec ID                                 : 40
Duration                                 : 1h 41mn
Bit rate mode                            : Variable
Bit rate                                 : 96.0 Kbps
Maximum bit rate                         : 117 Kbps
Channel(s)                               : 2 channels
Channel positions                        : Front: L R
Sampling rate                            : 48.0 KHz
Compression mode                         : Lossy
Delay relative to video                  : 83ms
Stream size                              : 69.5 MiB (20%)
Encoded date                             : UTC 2013-02-17 15:57:15
Tagged date                              : UTC 2013-02-17 16:21:36[/code]

[b][size=200][color=black]SOURCE[/color][/size][/b]

[code]Wreck-It.Ralph.2012.BRRip.XviD.Ac3-Blackjesus(Thanks)[/code]

[b][size=200][color=black]SCREENSHOTS[/color][/size][/b]

[img]http://img831.imageshack.us/img831/5636/wreckitralph2012brripx2.jpg[/img]

[img]http://kastatic.com/i2/users/133df62bbf28e62494bb17fe11078f1a.gif[/img][img]http://kastatic.com/i2/users/133df62bbf28e62494bb17fe11078f1a.gif[/img]